<svg width="24" height="24" viewBox="0 0 24 24" fill="none" xmlns="http://www.w3.org/2000/svg">
<path fill-rule="evenodd" clip-rule="evenodd" d="M3.42856 12.9914V6.14697C3.42856 6.06299 3.49071 6 3.57357 6H7.14716C7.23003 6 7.29218 6.06299 7.29218 6.14697V12.9914C7.29218 13.0754 7.23003 13.1384 7.14716 13.1384H3.57357C3.49071 13.1384 3.42856 13.0754 3.42856 12.9914ZM9.74709 12.9914V6.14697C9.74709 6.06299 9.80924 6 9.8921 6H13.4657C13.5486 6 13.6107 6.06299 13.6107 6.14697V12.9914C13.6107 13.0754 13.5486 13.1384 13.4657 13.1384H9.8921C9.80924 13.1384 9.74709 13.0754 9.74709 12.9914ZM20.5715 6.14697C20.5715 6.06299 20.5093 6 20.4264 6H16.8529C16.77 6 16.7078 6.06299 16.7078 6.14697V11.5427C16.7078 14.5765 14.9469 17.2009 12.4092 18.4082C12.3367 18.4502 12.3056 18.5341 12.3367 18.6076L13.7972 21.9144C13.8283 21.9878 13.9215 22.0193 13.994 21.9878C17.4226 20.3817 19.9292 17.075 20.4679 13.1384C20.53 12.624 20.5715 12.0886 20.5715 11.5532V6.14697Z" fill="white" fill-opacity="0.91"/>
</svg>
