<svg xmlns="http://www.w3.org/2000/svg" width="85" height="30" fill="none"><path fill="#1C1C1C" d="M64.54 4.366V7.11c0 .113.087.2.2.2h4.927c-.125 2.02-.362 6.075-.425 7.173-.112 2.27-.673 4.066-1.684 5.513-.898 1.285-2.133 2.258-3.767 2.969-.1.05-.15.162-.1.274l1.136 2.47c.05.1.162.15.261.1 4.379-1.884 6.949-5.676 7.248-10.765l.462-7.734h8.095v18.062c0 .113.087.2.2.2h2.757c.112 0 .199-.087.199-.2V4.366c0-.112-.087-.2-.2-.2H64.74c-.112-.012-.2.088-.2.2ZM58.777 15.618h-8.532v-.936h8.258c.112 0 .2-.087.2-.2v-1.659c0-.112-.088-.2-.2-.2h-8.258v-.935h8.258c.112 0 .2-.087.2-.2V4.367c0-.112-.088-.2-.2-.2H39.355c-.112 0-.2.088-.2.2v7.11c0 .112.088.2.2.2h8.258v.935h-8.258c-.112 0-.2.088-.2.2v1.659c0 .112.088.2.2.2h8.258v.935H39.08c-.112 0-.2.088-.2.2v1.659c0 .112.088.2.2.2h19.71c.112 0 .199-.088.199-.2v-1.66c-.012-.087-.1-.186-.212-.186ZM56.07 9.605h-5.825v-3.38h5.825v3.38Zm-14.283 0v-3.38h5.826v3.38h-5.826ZM50.233 22.765h8.445c.112 0 .2-.087.2-.2v-1.658c0-.113-.088-.2-.2-.2h-8.445v-2.245c0-.113-.087-.2-.2-.2h-2.22c-.112 0-.2.087-.2.2v2.245H39.17c-.113 0-.2.087-.2.2v1.659c0 .112.087.2.2.2h8.445v.748H38.52c-.112 0-.2.087-.2.2v1.658c0 .113.088.2.2.2h20.806c.113 0 .2-.087.2-.2v-1.659c0-.112-.087-.2-.2-.2h-9.093v-.748Z"/><path fill="#1C1C1C" d="M45.454 6.973h-2.046a.106.106 0 0 0-.1.125l.337 1.671c.013.05.05.088.1.088h2.046a.106.106 0 0 0 .1-.125l-.337-1.672c-.013-.05-.05-.087-.1-.087ZM54.2 8.782l.337-1.672c.013-.062-.037-.125-.1-.125h-2.045c-.05 0-.088.038-.1.088l-.337 1.659c-.012.062.038.125.1.125H54.1c.05 0 .087-.038.1-.075ZM56.343 20.133h2.045a.106.106 0 0 0 .1-.124l-.337-1.672c-.012-.05-.05-.087-.1-.087h-2.045a.106.106 0 0 0-.1.124l.337 1.672c.012.05.05.087.1.087ZM52.392 20.133h2.045c.063 0 .113-.062.1-.124l-.337-1.672c-.012-.05-.05-.087-.1-.087h-2.045c-.063 0-.112.062-.1.124l.337 1.672c.012.05.05.087.1.087ZM41.599 20.046l.337-1.672a.106.106 0 0 0-.1-.124H39.79c-.05 0-.087.037-.1.087l-.337 1.672a.106.106 0 0 0 .1.124H41.5c.05 0 .087-.037.1-.087ZM45.554 20.046l.337-1.672a.106.106 0 0 0-.1-.124h-2.046c-.05 0-.087.037-.1.087l-.336 1.672a.106.106 0 0 0 .1.124h2.045c.05 0 .087-.037.1-.087Z"/><path fill="#F33" d="M24 30H6c-3.318 0-6-2.694-6-6V6c0-3.318 2.682-6 6-6h18c3.318 0 6 2.682 6 6v18c0 3.306-2.694 6-6 6Z"/><path fill="#fff" d="M4.678 15.368V7.235c0-.1.075-.175.174-.175h4.304c.1 0 .175.075.175.175v8.133a.17.17 0 0 1-.175.175H4.852a.17.17 0 0 1-.174-.175ZM12.29 15.368V7.235c0-.1.074-.175.174-.175h4.303c.1 0 .175.075.175.175v8.133a.17.17 0 0 1-.175.175h-4.303a.17.17 0 0 1-.175-.175ZM25.147 7.06c.1 0 .175.075.175.175v6.424c0 .636-.05 1.272-.125 1.884a13.683 13.683 0 0 1-7.796 10.515c-.087.038-.2 0-.237-.087l-1.759-3.93c-.037-.087 0-.186.087-.236a9.013 9.013 0 0 0 5.177-8.158V7.235c0-.1.075-.175.175-.175h4.303Z"/></svg>