<svg xmlns="http://www.w3.org/2000/svg" width="30" height="30" fill="none"><g clip-path="url(#a)"><path fill="#F33" d="M0 0h30v30H0z"/><path fill="#fff" d="M6 14.743v-7.09c0-.088.065-.153.152-.153h3.753c.087 0 .152.065.152.152v7.091a.149.149 0 0 1-.152.153H6.152A.149.149 0 0 1 6 14.743ZM12.634 14.743v-7.09c0-.088.066-.153.153-.153h3.752c.087 0 .152.065.152.152v7.091a.149.149 0 0 1-.152.153h-3.752a.149.149 0 0 1-.153-.153ZM23.848 7.5c.087 0 .152.065.152.152v5.602c0 .554-.044 1.109-.109 1.642a11.93 11.93 0 0 1-6.797 9.168c-.077.033-.174 0-.207-.076l-1.534-3.426c-.032-.076 0-.163.077-.206a7.858 7.858 0 0 0 4.513-7.113v-5.59c0-.088.066-.153.152-.153h3.753Z"/></g><defs><clipPath id="a"><rect width="30" height="30" fill="#fff" rx="6"/></clipPath></defs></svg>