<svg width="180" height="152" viewBox="0 0 180 152" fill="none" xmlns="http://www.w3.org/2000/svg">
<path fill-rule="evenodd" clip-rule="evenodd" d="M113.766 56.2565L179.398 1.28809L180 2.00121L114.368 56.9696L113.766 56.2565ZM0.300781 151.287L65.9327 96.3182L66.5345 97.0313L0.902623 152L0.300781 151.287Z" fill="black" fill-opacity="0.15"/>
<path fill-rule="evenodd" clip-rule="evenodd" d="M66.4004 56.2565L0.768501 1.28809L0.166656 2.00121L65.7986 56.9696L66.4004 56.2565ZM179.866 151.287L114.234 96.3182L113.632 97.0313L179.264 152L179.866 151.287Z" fill="black" fill-opacity="0.15"/>
<path d="M66.2334 95.7432L0.601562 150.712L0 149.999L65.6318 95.0303L66.2334 95.7432ZM179.699 149.532L179.098 150.246L113.989 95.7432L114.591 95.0303L179.699 149.532ZM66.7334 54.9688L66.1318 55.6816L0.467773 0.712891L1.06934 0L66.7334 54.9688ZM179.699 0.712891L114.067 55.6816L113.465 54.9688L179.098 0L179.699 0.712891Z" fill="white" fill-opacity="0.3"/>
<g filter="url(#filter0_d_151299_93074)">
<path d="M51.5332 66C51.6789 66.0002 51.791 66.1111 51.791 66.2549V75.7168C51.791 76.6575 51.724 77.5876 51.6006 78.4951C50.6359 85.3791 46.1372 91.1563 39.9678 93.9785C39.8332 94.0337 39.6762 93.9785 39.6201 93.8457L36.9951 88.0576C36.9392 87.925 36.9956 87.7813 37.1299 87.7148C41.6952 85.5899 44.8477 81.0181 44.8477 75.7168V66.2549C44.8477 66.111 44.9597 66 45.1055 66H51.5332ZM61.0762 67.6475C61.1469 67.6521 61.2141 67.6809 61.2656 67.7295L67.4092 73.873L73.5439 67.7295C73.5954 67.681 73.6629 67.6522 73.7334 67.6475H74.4092C74.4788 67.6475 74.5454 67.6754 74.5947 67.7246C74.6441 67.774 74.6729 67.8412 74.6729 67.9111V82.1914C74.6726 82.261 74.6439 82.3277 74.5947 82.377C74.5454 82.426 74.4787 82.454 74.4092 82.4541H72.3174C72.2477 82.454 72.1802 82.4263 72.1309 82.377C72.0817 82.3278 72.0539 82.2609 72.0537 82.1914V72.9268L67.5898 77.3896C67.5396 77.4362 67.4728 77.4629 67.4043 77.4629C67.3359 77.4627 67.2698 77.4363 67.2197 77.3896L62.7559 72.9268V82.207C62.7557 82.2767 62.7279 82.3443 62.6787 82.3936C62.6293 82.4427 62.5618 82.4707 62.4922 82.4707H60.3838C60.3494 82.4682 60.315 82.4588 60.2842 82.4434C60.2535 82.4279 60.2256 82.4068 60.2031 82.3809C60.1573 82.3291 60.1331 82.2604 60.1367 82.1914V67.9111C60.1367 67.8416 60.1649 67.774 60.2139 67.7246C60.2631 67.6754 60.3308 67.6477 60.4004 67.6475H61.0762ZM84.5547 67.6475C86.5204 67.6475 88.4059 68.4284 89.7959 69.8184C91.1858 71.2083 91.9668 73.0939 91.9668 75.0596C91.9666 77.0249 91.1855 78.91 89.7959 80.2998C88.406 81.6895 86.5202 82.4707 84.5547 82.4707C82.5891 82.4706 80.7033 81.6897 79.3135 80.2998C77.9239 78.91 77.1428 77.0249 77.1426 75.0596C77.1426 73.0941 77.9239 71.2083 79.3135 69.8184C80.7033 68.4285 82.5891 67.6476 84.5547 67.6475ZM101.843 67.6494C103.204 67.6497 104.539 68.0246 105.701 68.7334C106.863 69.4423 107.808 70.4578 108.431 71.668C108.513 71.8326 108.389 72.0137 108.208 72.0137H105.795C105.758 72.0145 105.72 72.0068 105.686 71.9912C105.652 71.9755 105.621 71.9518 105.598 71.9229C105.14 71.3712 104.566 70.9276 103.917 70.623C103.268 70.3186 102.56 70.1607 101.843 70.1611C100.546 70.1614 99.301 70.6766 98.3838 71.5938C97.7 72.2778 97.2336 73.15 97.0449 74.0986C96.8564 75.0473 96.9531 76.0312 97.3232 76.9248C97.6935 77.8184 98.3208 78.5827 99.125 79.1201C99.9292 79.6574 100.876 79.9442 101.843 79.9443C102.575 79.9458 103.299 79.7825 103.959 79.4668C104.583 79.1669 105.136 78.7371 105.581 78.207C105.604 78.1796 105.634 78.1572 105.666 78.1416C105.699 78.1261 105.734 78.1171 105.771 78.1162H108.208C108.249 78.1147 108.29 78.1245 108.327 78.1436C108.364 78.1627 108.396 78.1907 108.418 78.2256C108.44 78.2604 108.454 78.3005 108.456 78.3418C108.458 78.383 108.449 78.425 108.431 78.4619C107.836 79.6115 106.95 80.5862 105.861 81.2871C104.438 82.2046 102.743 82.6065 101.059 82.4268C99.3746 82.2469 97.8021 81.4963 96.6045 80.2988C95.5693 79.2624 94.8646 77.9416 94.5791 76.5049C94.2938 75.0683 94.4408 73.5789 95.001 72.2256C95.5613 70.8724 96.5103 69.7149 97.7275 68.9004C98.9451 68.086 100.378 67.6508 101.843 67.6494ZM122.729 67.9111C122.795 67.908 122.861 67.9257 122.918 67.9609C122.975 68.0011 123.018 68.0586 123.041 68.125C123.064 68.1884 123.067 68.2582 123.05 68.3232C123.034 68.3863 122.999 68.4437 122.951 68.4873L117.187 73.7998C117.129 73.8656 117.096 73.9481 117.096 74.0303C117.094 74.1184 117.126 74.204 117.187 74.2686L124.087 81.623C124.13 81.6715 124.16 81.7315 124.17 81.7959C124.18 81.8591 124.171 81.9241 124.145 81.9824C124.118 82.0406 124.075 82.0906 124.021 82.125C123.967 82.1585 123.904 82.1763 123.84 82.1748H121.37C121.325 82.1763 121.279 82.1678 121.238 82.1494C121.197 82.1309 121.16 82.1022 121.131 82.0674L115.474 75.8252C115.408 75.7676 115.325 75.7266 115.242 75.7266C115.198 75.7262 115.154 75.7351 115.113 75.752C115.073 75.7689 115.035 75.7937 115.004 75.8252L113.514 77.2012C113.479 77.2303 113.45 77.2666 113.431 77.3076L113.406 77.4395V81.8779C113.406 81.9201 113.398 81.963 113.382 82.002C113.367 82.042 113.343 82.0794 113.313 82.1104C113.284 82.141 113.248 82.1657 113.209 82.1826C113.168 82.1996 113.122 82.2088 113.077 82.208H111.257C111.216 82.2079 111.166 82.199 111.133 82.1826C111.091 82.1689 111.051 82.1468 111.018 82.1172L110.952 82.002C110.936 81.963 110.928 81.9202 110.928 81.8779V68.2734C110.928 68.2305 110.936 68.1872 110.952 68.1475C110.969 68.1079 110.993 68.0714 111.023 68.041C111.054 68.0106 111.091 67.9863 111.131 67.9697C111.171 67.9532 111.214 67.9444 111.257 67.9443H113.077C113.119 67.9446 113.161 67.9528 113.2 67.9688C113.24 67.9861 113.277 68.0114 113.308 68.043C113.339 68.0733 113.365 68.1102 113.382 68.1504C113.398 68.1894 113.406 68.2313 113.406 68.2734V73.9062C113.407 73.9708 113.427 74.0346 113.464 74.0879C113.498 74.1414 113.546 74.1841 113.604 74.2109C113.663 74.2372 113.731 74.245 113.795 74.2334C113.859 74.2217 113.919 74.1909 113.966 74.1455L120.349 68.0352C120.408 67.9775 120.488 67.9448 120.571 67.9443L122.729 67.9111ZM128.786 67.9277C128.831 67.9269 128.876 67.935 128.918 67.9521C128.958 67.9695 128.995 67.9948 129.025 68.0264C129.054 68.0574 129.076 68.0943 129.091 68.1338C129.11 68.1721 129.122 68.214 129.124 68.2568V81.8613C129.124 81.9036 129.115 81.9464 129.099 81.9854C129.083 82.0283 129.058 82.0682 129.025 82.1006C128.994 82.129 128.957 82.1512 128.918 82.166C128.876 82.183 128.831 82.1923 128.786 82.1914H126.966L126.843 82.166C126.803 82.1513 126.766 82.1293 126.735 82.1006C126.703 82.0677 126.678 82.0264 126.661 81.9854C126.648 81.9458 126.642 81.903 126.645 81.8613V68.2568C126.645 68.2148 126.654 68.1727 126.67 68.1338C126.701 68.0532 126.764 67.9875 126.843 67.9521C126.884 67.9351 126.93 67.9269 126.975 67.9277H128.786ZM143.667 67.9277C143.709 67.9279 143.752 67.9361 143.791 67.9521C143.828 67.9704 143.862 67.9957 143.89 68.0264C143.924 68.0563 143.952 68.0931 143.972 68.1338C143.988 68.1728 143.997 68.2146 143.997 68.2568V69.5996C143.997 69.6866 143.962 69.7705 143.9 69.832C143.839 69.8935 143.754 69.9287 143.667 69.9287H139.368C139.325 69.9288 139.282 69.9377 139.242 69.9541C139.203 69.9706 139.166 69.995 139.136 70.0254C139.105 70.0558 139.081 70.0922 139.064 70.1318C139.048 70.1716 139.039 70.2148 139.039 70.2578V81.8613C139.039 81.9036 139.031 81.9464 139.015 81.9854C138.999 82.0284 138.973 82.0681 138.94 82.1006C138.909 82.129 138.872 82.1512 138.833 82.166C138.792 82.1832 138.746 82.1925 138.701 82.1914H136.882L136.758 82.166C136.718 82.1513 136.681 82.1293 136.65 82.1006C136.618 82.0681 136.593 82.0284 136.577 81.9854C136.561 81.9464 136.552 81.9036 136.552 81.8613V70.2578C136.552 70.1705 136.517 70.0871 136.455 70.0254C136.393 69.9637 136.31 69.9287 136.223 69.9287H131.924C131.837 69.9286 131.752 69.8937 131.69 69.832C131.629 69.7705 131.595 69.6865 131.595 69.5996V68.2568C131.595 68.1697 131.629 68.0852 131.69 68.0234C131.752 67.9618 131.837 67.9279 131.924 67.9277H143.667ZM158.532 67.9277C158.574 67.928 158.616 67.9362 158.655 67.9521C158.693 67.9704 158.727 67.9957 158.755 68.0264C158.789 68.0562 158.817 68.0932 158.837 68.1338C158.853 68.1728 158.861 68.2147 158.861 68.2568V69.5996C158.861 69.6866 158.826 69.7705 158.765 69.832C158.703 69.8934 158.619 69.9287 158.532 69.9287H154.233C154.19 69.9288 154.147 69.9376 154.107 69.9541C154.068 69.9706 154.03 69.995 154 70.0254C153.97 70.0558 153.945 70.0922 153.929 70.1318C153.912 70.1716 153.904 70.2148 153.904 70.2578V81.8613C153.904 81.9036 153.895 81.9464 153.879 81.9854C153.863 82.0283 153.837 82.0682 153.805 82.1006C153.774 82.1288 153.737 82.1513 153.698 82.166C153.657 82.1832 153.611 82.1925 153.566 82.1914H151.746L151.623 82.166C151.584 82.1513 151.547 82.1293 151.516 82.1006C151.483 82.0681 151.458 82.0285 151.441 81.9854C151.425 81.9464 151.417 81.9036 151.417 81.8613V70.2578L151.392 70.1348C151.376 70.0954 151.354 70.0587 151.326 70.0273C151.296 69.9958 151.259 69.9705 151.219 69.9531C151.18 69.9372 151.138 69.9289 151.096 69.9287H146.797C146.71 69.9286 146.625 69.8937 146.563 69.832C146.502 69.7705 146.468 69.6865 146.468 69.5996V68.2568C146.468 68.1697 146.502 68.0852 146.563 68.0234C146.625 67.9618 146.71 67.9279 146.797 67.9277H158.532ZM85.5107 70.2529C84.7217 70.0959 83.9056 70.1357 83.1357 70.3691C82.3659 70.6027 81.6645 71.0229 81.0957 71.5918C80.1787 72.509 79.6633 73.7538 79.6631 75.0508C79.6632 76.3479 80.1785 77.5925 81.0957 78.5098C82.013 79.427 83.2575 79.9423 84.5547 79.9424C85.8477 79.9295 87.0845 79.4102 87.999 78.4961C88.9135 77.5816 89.4333 76.344 89.4463 75.0508C89.4465 74.4096 89.3209 73.7743 89.0762 73.1816C88.7687 72.4379 88.282 71.7813 87.6602 71.2705C87.0383 70.7598 86.2999 70.4101 85.5107 70.2529ZM27.6855 66.0117C27.8312 66.0118 27.9433 66.1219 27.9434 66.2656V78.2412C27.9432 78.3849 27.8312 78.495 27.6855 78.4951H21.2578C21.1234 78.495 21.0002 78.3849 21 78.2412V66.2656C21.0001 66.1219 21.1121 66.0118 21.2578 66.0117H27.6855ZM39.0371 66.0117C39.1828 66.0118 39.2948 66.1219 39.2949 66.2656V78.2412C39.2947 78.3849 39.1828 78.4951 39.0371 78.4951H32.6094C32.4638 78.495 32.3518 78.3738 32.3516 78.2412V66.2656C32.3517 66.1219 32.4637 66.0119 32.6094 66.0117H39.0371Z" fill="white" fill-opacity="0.4" shape-rendering="crispEdges"/>
</g>
<defs>
<filter id="filter0_d_151299_93074" x="21" y="66" width="138.861" height="28.9995" filterUnits="userSpaceOnUse" color-interpolation-filters="sRGB">
<feFlood flood-opacity="0" result="BackgroundImageFix"/>
<feColorMatrix in="SourceAlpha" type="matrix" values="0 0 0 0 0 0 0 0 0 0 0 0 0 0 0 0 0 0 127 0" result="hardAlpha"/>
<feOffset dx="1" dy="1"/>
<feComposite in2="hardAlpha" operator="out"/>
<feColorMatrix type="matrix" values="0 0 0 0 0 0 0 0 0 0 0 0 0 0 0 0 0 0 0.15 0"/>
<feBlend mode="normal" in2="BackgroundImageFix" result="effect1_dropShadow_151299_93074"/>
<feBlend mode="normal" in="SourceGraphic" in2="effect1_dropShadow_151299_93074" result="shape"/>
</filter>
</defs>
</svg>
