<svg width="80" height="80" viewBox="0 0 80 80" fill="none" xmlns="http://www.w3.org/2000/svg">
<g filter="url(#filter0_d_151300_93186)">
<path d="M10.5713 35.4956C10.6142 35.4984 10.6552 35.5159 10.6865 35.5454L14.4199 39.2798L18.1484 35.5454C18.1798 35.5159 18.2207 35.4984 18.2637 35.4956H18.6738C18.7162 35.4956 18.7571 35.5125 18.7871 35.5425C18.8171 35.5725 18.834 35.6133 18.834 35.6558V44.3345C18.834 44.3769 18.8171 44.4177 18.7871 44.4478C18.7571 44.4777 18.7162 44.4946 18.6738 44.4946H17.4023C17.3602 44.4945 17.3199 44.4775 17.29 44.4478C17.26 44.4177 17.2422 44.3769 17.2422 44.3345V38.7036L14.5303 41.4165C14.4997 41.445 14.4588 41.4604 14.417 41.4604C14.3753 41.4604 14.3352 41.4449 14.3047 41.4165L11.5918 38.7036V44.3442C11.5918 44.3867 11.575 44.4275 11.5449 44.4575C11.5149 44.4875 11.4741 44.5044 11.4316 44.5044H10.1504C10.1294 44.5029 10.1087 44.4972 10.0898 44.4878C10.0711 44.4784 10.0538 44.4656 10.04 44.4497C10.0121 44.4181 9.99768 44.3765 10 44.3345V35.6558C10 35.6134 10.017 35.5725 10.0469 35.5425C10.0768 35.5125 10.1178 35.4957 10.1602 35.4956H10.5713ZM24.8398 35.4956C26.0345 35.4956 27.1806 35.9702 28.0254 36.8149C28.8701 37.6597 29.3447 38.8059 29.3447 40.0005C29.3446 41.1949 28.8699 42.3404 28.0254 43.1851C27.1806 44.0298 26.0345 44.5044 24.8398 44.5044C23.6453 44.5044 22.5 44.0297 21.6553 43.1851C20.8106 42.3404 20.336 41.195 20.3359 40.0005C20.3359 38.8058 20.8105 37.6597 21.6553 36.8149C22.5 35.9704 23.6453 35.4956 24.8398 35.4956ZM35.3467 35.4966C36.174 35.4967 36.9851 35.7249 37.6914 36.1558C38.3977 36.5866 38.9718 37.2034 39.3506 37.939C39.4006 38.039 39.3258 38.1487 39.2158 38.1489H37.749C37.7261 38.1495 37.7034 38.1448 37.6826 38.1353C37.6619 38.1257 37.6434 38.1119 37.6289 38.0942C37.3507 37.7589 37.0019 37.4884 36.6074 37.3032C36.213 37.1181 35.7824 37.0227 35.3467 37.0229C34.5582 37.023 33.8016 37.3365 33.2441 37.894C32.8286 38.3098 32.5453 38.84 32.4307 39.4165C32.3161 39.993 32.3757 40.5903 32.6006 41.1333C32.8256 41.6765 33.2065 42.1416 33.6953 42.4683C34.1841 42.7948 34.7589 42.9692 35.3467 42.9692C35.7918 42.9702 36.2312 42.8702 36.6328 42.6782C37.0121 42.4959 37.3486 42.235 37.6191 41.9126C37.6333 41.8959 37.6512 41.882 37.6709 41.8726C37.6906 41.8632 37.7125 41.8584 37.7344 41.8579H39.2158C39.2409 41.857 39.2658 41.8629 39.2881 41.8745C39.3103 41.8861 39.3292 41.9032 39.3428 41.9243C39.3564 41.9455 39.3649 41.9704 39.3662 41.9956C39.3675 42.0206 39.3618 42.0455 39.3506 42.0679C38.9889 42.7667 38.4506 43.3586 37.7891 43.7847C36.9239 44.3424 35.8937 44.5873 34.8701 44.478C33.8466 44.3687 32.891 43.9119 32.1631 43.1841C31.5341 42.5542 31.1061 41.7516 30.9326 40.8784C30.7592 40.0053 30.848 39.1003 31.1885 38.2778C31.5291 37.4552 32.1066 36.7523 32.8467 36.2573C33.5867 35.7624 34.4564 35.4974 35.3467 35.4966ZM48.04 35.6558C48.0805 35.6539 48.1208 35.6646 48.1553 35.686C48.1904 35.7105 48.2168 35.7461 48.2305 35.7866C48.2443 35.8251 48.246 35.8673 48.2354 35.9067C48.2257 35.945 48.2051 35.9798 48.1758 36.0063L44.6719 39.2349C44.637 39.2748 44.6173 39.3246 44.6172 39.3745C44.6158 39.4282 44.6352 39.4807 44.6719 39.52L48.8662 43.9897C48.8925 44.0191 48.9098 44.0553 48.916 44.0942C48.9221 44.1328 48.9174 44.1729 48.9014 44.2085C48.8854 44.2439 48.8589 44.2735 48.8262 44.2944C48.7932 44.3149 48.7547 44.3256 48.7158 44.3247H47.2148C47.1873 44.3257 47.159 44.3204 47.1338 44.3091C47.1088 44.2978 47.0868 44.2804 47.0693 44.2593L43.6309 40.4663C43.5908 40.4313 43.5403 40.4058 43.4902 40.4058C43.4634 40.4055 43.4369 40.4111 43.4121 40.4214C43.3872 40.4317 43.3646 40.447 43.3457 40.4663L42.4395 41.3013C42.4183 41.319 42.4014 41.3417 42.3896 41.3667L42.375 41.4468V44.144C42.375 44.1697 42.3692 44.1955 42.3594 44.2192C42.3501 44.2437 42.3364 44.2667 42.3184 44.2856C42.3004 44.3044 42.2787 44.3192 42.2549 44.3296C42.2296 44.34 42.2021 44.3447 42.1748 44.3442H41.0684C41.0433 44.3442 41.0132 44.3396 40.9932 44.3296C40.9673 44.3213 40.9431 44.3076 40.9229 44.2896L40.8828 44.2192C40.873 44.1956 40.8682 44.1697 40.8682 44.144V35.8765C40.8682 35.8502 40.8737 35.8236 40.8838 35.7993C40.8938 35.7752 40.9083 35.7533 40.9268 35.7349C40.9453 35.7163 40.967 35.701 40.9912 35.6909C41.0155 35.6809 41.0421 35.6763 41.0684 35.6763H42.1748C42.2003 35.6765 42.2255 35.6813 42.249 35.6909C42.2734 35.7014 42.296 35.7167 42.3145 35.7358C42.3336 35.7543 42.3488 35.7768 42.3594 35.8013C42.3692 35.8251 42.3749 35.8507 42.375 35.8765V39.2993C42.3756 39.3385 42.3871 39.3773 42.4092 39.4097C42.4297 39.4424 42.4601 39.4686 42.4951 39.4849C42.5315 39.5008 42.5722 39.5056 42.6113 39.4985C42.6504 39.4914 42.6864 39.4726 42.7148 39.4448L46.5938 35.731C46.6299 35.696 46.6782 35.6766 46.7285 35.6763L48.04 35.6558ZM51.7217 35.6655C51.7491 35.665 51.7764 35.6707 51.8018 35.6812C51.8261 35.6917 51.8488 35.7069 51.8672 35.7261C51.8844 35.7449 51.8982 35.7667 51.9072 35.7905C51.919 35.8139 51.9253 35.8396 51.9268 35.8657V44.1343C51.9267 44.16 51.922 44.1857 51.9121 44.2095C51.9024 44.2355 51.8868 44.2591 51.8672 44.2788C51.8483 44.2962 51.8257 44.3098 51.8018 44.3188C51.7764 44.3293 51.7491 44.335 51.7217 44.3345H50.6152L50.54 44.3188C50.5161 44.3099 50.4943 44.2962 50.4756 44.2788C50.4557 44.2589 50.4407 44.2343 50.4307 44.2095C50.4225 44.1854 50.4184 44.1597 50.4199 44.1343V35.8657C50.4201 35.84 50.4258 35.8143 50.4355 35.7905C50.4547 35.7417 50.4922 35.7026 50.54 35.6812C50.5653 35.6708 50.5928 35.665 50.6201 35.6655H51.7217ZM60.8408 35.6802C60.8635 35.6913 60.8834 35.7074 60.9004 35.7261C60.9212 35.7442 60.9389 35.7658 60.9512 35.7905C60.9609 35.8143 60.9657 35.84 60.9658 35.8657V36.6821C60.9657 36.735 60.9445 36.7853 60.9072 36.8228C60.8697 36.8603 60.8187 36.8823 60.7656 36.8823H58.1533C58.127 36.8823 58.1005 36.8869 58.0762 36.897C58.052 36.907 58.0302 36.9224 58.0117 36.9409C57.9932 36.9595 57.9778 36.9811 57.9678 37.0054C57.9577 37.0296 57.9531 37.0563 57.9531 37.0825V44.1343C57.9531 44.16 57.9474 44.1857 57.9375 44.2095C57.9277 44.2356 57.9123 44.2591 57.8926 44.2788C57.8738 44.2961 57.852 44.3098 57.8281 44.3188C57.8029 44.3294 57.7754 44.3351 57.748 44.3345H56.6416L56.5664 44.3188C56.5424 44.3099 56.5207 44.2962 56.502 44.2788C56.4821 44.259 56.4659 44.2357 56.4561 44.2095C56.4462 44.1857 56.4414 44.16 56.4414 44.1343V37.0825C56.4414 37.0295 56.4202 36.9784 56.3828 36.9409C56.3453 36.9034 56.2943 36.8823 56.2412 36.8823H53.6289C53.5758 36.8823 53.5248 36.8603 53.4873 36.8228C53.4499 36.7853 53.4288 36.735 53.4287 36.6821V35.8657C53.4287 35.8127 53.4498 35.7616 53.4873 35.7241C53.5248 35.6867 53.5759 35.6655 53.6289 35.6655H60.7656C60.7913 35.6657 60.817 35.6704 60.8408 35.6802ZM69.7998 35.6655C69.8255 35.6657 69.8512 35.6704 69.875 35.6802C69.8977 35.6913 69.9176 35.7074 69.9346 35.7261C69.9554 35.7443 69.9731 35.7658 69.9854 35.7905C69.9951 35.8143 69.9999 35.84 70 35.8657V36.6821C69.9999 36.7349 69.9787 36.7853 69.9414 36.8228C69.9039 36.8603 69.8529 36.8823 69.7998 36.8823H67.1875C67.1612 36.8823 67.1346 36.8869 67.1104 36.897C67.0861 36.907 67.0644 36.9224 67.0459 36.9409C67.0273 36.9595 67.012 36.9811 67.002 37.0054C66.9919 37.0296 66.9873 37.0562 66.9873 37.0825V44.1343C66.9873 44.16 66.9816 44.1857 66.9717 44.2095C66.9619 44.2356 66.9465 44.2591 66.9268 44.2788C66.908 44.2961 66.8862 44.3098 66.8623 44.3188C66.8371 44.3294 66.8095 44.3351 66.7822 44.3345H65.6758L65.6006 44.3188C65.5765 44.3099 65.554 44.2963 65.5352 44.2788C65.5155 44.2591 65.5 44.2355 65.4902 44.2095C65.4803 44.1857 65.4756 44.16 65.4756 44.1343V37.0825L65.4609 37.0073C65.4517 36.9835 65.438 36.9609 65.4209 36.9419C65.4025 36.9227 65.3799 36.9075 65.3555 36.897C65.3316 36.8872 65.306 36.8825 65.2803 36.8823H62.668C62.6149 36.8823 62.5639 36.8603 62.5264 36.8228C62.489 36.7853 62.4679 36.735 62.4678 36.6821V35.8657C62.4678 35.8127 62.4888 35.7616 62.5264 35.7241C62.5639 35.6867 62.615 35.6655 62.668 35.6655H69.7998ZM25.4209 37.0796C24.9413 36.9841 24.4455 37.008 23.9775 37.1499C23.5096 37.2918 23.0841 37.5473 22.7383 37.8931C22.1808 38.4505 21.8674 39.2063 21.8672 39.9946C21.8672 40.783 22.1799 41.5397 22.7373 42.0972C23.2948 42.6547 24.0514 42.9682 24.8398 42.9683C25.6259 42.9604 26.3777 42.6442 26.9336 42.0884C27.4893 41.5325 27.8047 40.7806 27.8125 39.9946C27.8126 39.605 27.7367 39.219 27.5879 38.8589C27.401 38.407 27.1054 38.0082 26.7275 37.6978C26.3496 37.3873 25.9006 37.1751 25.4209 37.0796Z" fill="white" fill-opacity="0.4" shape-rendering="crispEdges"/>
</g>
<defs>
<filter id="filter0_d_151300_93186" x="10" y="35.4956" width="61" height="10.0088" filterUnits="userSpaceOnUse" color-interpolation-filters="sRGB">
<feFlood flood-opacity="0" result="BackgroundImageFix"/>
<feColorMatrix in="SourceAlpha" type="matrix" values="0 0 0 0 0 0 0 0 0 0 0 0 0 0 0 0 0 0 127 0" result="hardAlpha"/>
<feOffset dx="1" dy="1"/>
<feComposite in2="hardAlpha" operator="out"/>
<feColorMatrix type="matrix" values="0 0 0 0 0 0 0 0 0 0 0 0 0 0 0 0 0 0 0.15 0"/>
<feBlend mode="normal" in2="BackgroundImageFix" result="effect1_dropShadow_151300_93186"/>
<feBlend mode="normal" in="SourceGraphic" in2="effect1_dropShadow_151300_93186" result="shape"/>
</filter>
</defs>
</svg>
